<?xml version="1.0" encoding="utf-8"?>
<!-- Generator: Adobe Illustrator 24.2.1, SVG Export Plug-In . SVG Version: 6.00 Build 0)  -->
<svg version="1.1" id="Layer_1" xmlns="http://www.w3.org/2000/svg" xmlns:xlink="http://www.w3.org/1999/xlink" x="0px" y="0px"
	 viewBox="0 0 600 600" style="enable-background:new 0 0 600 600;" xml:space="preserve">
<style type="text/css">
	.st0{fill:#679E63;}
</style>
<g>
	<path class="st0" d="M302.92,600c-8.03,0-16.03-2.1-23.06-6.17l-73.41-43.43c-10.96-6.13-5.61-8.31-1.99-9.57
		c14.63-5.08,17.58-6.24,33.19-15.1c1.62-0.91,3.78-0.57,5.46,0.42l56.4,33.48c2.05,1.13,4.93,1.13,6.81,0l219.87-126.91
		c2.05-1.17,3.36-3.52,3.36-5.95V173.03c0-2.48-1.31-4.8-3.41-6.06L306.36,40.17c-2.03-1.19-4.73-1.19-6.77,0L79.85,167.01
		c-2.14,1.22-3.49,3.61-3.49,6.02v253.74c0,2.43,1.35,4.73,3.47,5.88l60.23,34.8c32.68,16.34,52.69-2.9,52.69-22.24V194.68
		c0-3.54,2.85-6.33,6.39-6.33h27.88c3.49,0,6.37,2.79,6.37,6.33v250.53c0,43.62-23.75,68.63-65.11,68.63
		c-12.71,0-22.71,0-50.65-13.77l-57.66-33.19c-14.24-8.23-23.06-23.63-23.06-40.11V173.03c0-16.49,8.82-31.88,23.06-40.07
		L279.86,5.9c13.91-7.87,32.41-7.87,46.21,0l219.86,127.05c14.24,8.23,23.09,23.59,23.09,40.07v253.74
		c0,16.49-8.85,31.82-23.09,40.11L326.07,593.83C319.04,597.9,311.07,600,302.92,600z"/>
	<path class="st0" d="M370.84,425.18c-96.22,0-116.37-44.16-116.37-81.21c0-3.52,2.83-6.34,6.35-6.34h28.43
		c3.18,0,5.82,2.28,6.32,5.39c4.29,28.94,17.09,43.54,75.27,43.54c46.32,0,66.04-10.48,66.04-35.05c0-14.17-5.59-24.68-77.58-31.73
		c-60.16-5.95-97.37-19.24-97.37-67.37c0-44.36,37.39-70.82,100.09-70.82c70.44,0,105.29,24.45,109.71,76.9
		c0.16,1.81-0.47,3.54-1.68,4.89c-1.21,1.26-2.88,2.03-4.66,2.03h-28.54c-2.96,0-5.57-2.1-6.17-4.97
		c-6.85-30.45-23.5-40.18-68.67-40.18c-50.57,0-56.45,17.62-56.45,30.82c0,15.99,6.94,20.65,75.22,29.69
		c67.57,8.93,99.67,21.58,99.67,69.07C480.46,397.74,440.51,425.18,370.84,425.18z"/>
</g>
</svg>
